HIERARCHY
ROOT hip
{
  OFFSET 0.0 0.0 0.0
  CHANNELS 6 Xposition Yposition Zposition Zrotation Yrotation Xrotation
  JOINT torso
  {
    OFFSET 0.0 0.0 0.0
    CHANNELS 3 Zrotation Xrotation Yrotation
    JOINT neck
    {
      OFFSET -8.059630999999968 325.56260699999996 64.6221310000002
      CHANNELS 3 Zrotation Xrotation Yrotation
      JOINT head
      {
        OFFSET 34.685424000000125 375.1179809999999 232.79357900000002
        CHANNELS 3 Zrotation Xrotation Yrotation
        End Site
        {
          OFFSET 0.0 0.0 0.0
        }
      }
    }
    JOINT left_collar
    {
      OFFSET -8.059630999999968 325.56260699999996 64.6221310000002
      CHANNELS 3 Zrotation Xrotation Yrotation
      JOINT left_upper_arm
      {
        OFFSET -124.124665 -15.370300999999927 25.582641999999964
        CHANNELS 3 Zrotation Xrotation Yrotation
        JOINT left_forearm
        {
          OFFSET -268.19913399999996 105.06054699999993 114.74548300000004
          CHANNELS 3 Zrotation Xrotation Yrotation
          JOINT left_hand
          {
            OFFSET -235.82003099999991 -10.198180999999977 -38.67455999999993
            CHANNELS 3 Zrotation Xrotation Yrotation
            End Site
            {
              OFFSET 0.0 0.0 0.0
            }
          }
        }
      }
    }
    JOINT right_collar
    {
      OFFSET -8.059630999999968 325.56260699999996 64.6221310000002
      CHANNELS 3 Zrotation Xrotation Yrotation
      JOINT right_upper_arm
      {
        OFFSET 162.73931899999997 -2.8598030000000563 26.244994999999903
        CHANNELS 3 Zrotation Xrotation Yrotation
        JOINT right_forearm
        {
          OFFSET 284.6506340000001 103.07031299999994 145.84521499999994
          CHANNELS 3 Zrotation Xrotation Yrotation
          JOINT right_hand
          {
            OFFSET 226.332337 -12.198241999999937 -49.27258299999994
            CHANNELS 3 Zrotation Xrotation Yrotation
            End Site
            {
              OFFSET 0.0 0.0 0.0
            }
          }
        }
      }
    }
  }
}
MOTION
Frames: 16
Frame Time: 0.01
380.19330663297 223.8478389153469 745.5936825457126 0.022730143847588247 0.5592236177370726 -3.506649826311476 0.04280404826806197 -1.661547107352444 -0.05010941451126858 -0.5773229831059499 -1.1823518350490072 0.47077216754480056 0.0 0.0 0.0 0.34337857352631385 -0.1850429366674143 2.021609010044082 -2.848932153010097 2.1546439912780007 8.193230252268323 0.5653282820809 -0.20590518351327586 2.333862069200881 0.0 0.0 0.0 -0.550297208936332 0.19129806549875897 4.5256889256352695 4.346744333278113 1.0627522445782192 -8.274052749488687 -3.128642791163275 -1.1723632308671603 -5.860782665328217 0.0 0.0 0.0
380.17571482950655 223.77635538617025 745.4029674648392 0.003634056115031814 0.5452006064870527 -3.5134466564249722 0.04897289972415109 -1.663549476104366 -0.05146976978396172 -0.5908574786897334 -1.189373906485721 0.4799294206181431 0.0 0.0 0.0 0.35505605309666377 -0.18537213685434076 2.041577546192566 -2.8287390397143137 2.183465125088534 8.247784241034685 0.410870584932947 -0.17026689779001475 2.1847124378372267 0.0 0.0 0.0 -0.5510617796658978 0.19186183118198138 4.543610194622103 4.265017489045783 1.141269067372288 -8.386681269770952 -2.8028981707553795 -1.0685701152458382 -5.6786171403311165 0.0 0.0 0.0
380.15000374062896 223.70243546927068 745.2153245015538 -0.01507228531711291 0.5300939259749767 -3.5187186965252595 0.05507822336509652 -1.6657361980772054 -0.05282146239125568 -0.6047998854544521 -1.1954285217902516 0.48925240797385244 0.0 0.0 0.0 0.3666297166546071 -0.18578582773775373 2.062028915262356 -2.8098013029353086 2.2119142454602496 8.302559010989727 0.24786525653517877 -0.13318272916773638 2.0287748990599495 0.0 0.0 0.0 -0.5520805735725312 0.19249717898265026 4.562399872473898 4.180113556042518 1.2229798849749753 -8.504801530986871 -2.4644765391687247 -0.9621285240575608 -5.491314209872483 0.0 0.0 0.0
380.1133897626685 223.6245072911099 745.0283234162687 -0.03341060498976176 0.5136431150569312 -3.5214754290611046 0.061054640833178034 -1.6679458767121775 -0.0541465714558522 -0.6189470691656205 -1.2006872958100918 0.49862971495838304 0.0 0.0 0.0 0.3780073120567227 -0.18627337931759158 2.082741819239582 -2.7915793345105424 2.24014501178201 8.357474776441865 0.0698693193634589 -0.09331339102280234 1.860587542961463 0.0 0.0 0.0 -0.5534522553523086 0.1932147133093082 4.5816403347163455 4.090638115178956 1.3091199703493566 -8.630191065782546 -2.1074415310941137 -0.8512681107387455 -5.294857626492342 0.0 0.0 0.0
380.06317883073694 223.540883168082 744.8391745147676 -0.0514370746621291 0.495585560346592 -3.5207368924080313 0.06684160328600396 -1.6699999120572284 -0.055427731775073666 -0.6330799726437482 -1.2053641705064735 0.5079439428554366 0.0 0.0 0.0 0.3891052027402209 -0.18682411309420136 2.1035085409381526 -2.77342247780964 2.268342853075166 8.41244033219137 -0.12993815480232096 -0.049318105930724644 1.6742914303389882 0.0 0.0 0.0 -0.5552744833235783 0.1940243889252836 4.600892052931777 3.9951347451673804 1.4009321163194852 -8.764636019115239 -1.7256966594611867 -0.7342524918690785 -5.084778883778183 0.0 0.0 0.0
379.99686586312794 223.4497951031009 744.644788902124 -0.06924382035296153 0.47566552018189817 -3.5155629762786167 0.07238489114591479 -1.6717058943483352 -0.0566485369845967 -0.646964960163703 -1.209713788799022 0.5170724203881941 0.0 0.0 0.0 0.39985075242985385 -0.18742735241383496 2.124138718995163 -2.754571538788167 2.2967220667204415 8.467348803621775 -0.35858632726671547 8.4381793467266e-05 1.4637688318385471 0.0 0.0 0.0 -0.5576405377603009 0.1949349423651921 4.619699372990763 3.892127700926966 1.4996193253390688 -8.909863223771344 -1.3131863780699937 -0.6094624025074366 -4.856240780872197 0.0 0.0 0.0
379.9122320811903 223.349430100428 744.4418430397959 -0.08695997713555689 0.45364341604002517 -3.5050817133440866 0.07763788449235375 -1.6728614987770407 -0.05779390971777143 -0.6603552346023011 -1.2140293949127103 0.5258879108910915 0.0 0.0 0.0 0.4101844608695759 -0.1880723574938991 2.144461791805922 -2.734162121227517 2.3255234610130704 8.522075397491221 -0.6231401598983011 0.05604878229390416 1.222783767091747 0.0 0.0 0.0 -0.560636040772264 0.1959533179403096 4.6375957449210885 3.7801644371192893 1.6062982147582727 -9.067472878122125 -0.8640929454468812 -0.4754800835063774 -4.604126242424987 0.0 0.0 0.0
379.8074365326201 223.2379637338221 744.2268458284503 -0.1047522323358726 0.429305052851403 -3.488515504751551 0.08256255246866193 -1.6732588720711534 -0.058850427283609875 -0.6729923221332181 -1.2186402369299167 0.5342593066893173 0.0 0.0 0.0 0.4200617374091183 -0.1887481454532279 2.164327965712377 -2.711228650577191 2.3550127611924347 8.57647758459892 -0.9305312790964029 0.11953237128164314 0.9451191066589437 0.0 0.0 0.0 -0.5643359077469569 0.1970841141044315 4.654108237226577 3.6578563319436235 1.7219551424789417 -9.238874427166568 -0.3730215377406105 -0.33117190872151103 -4.323130274993671 0.0 0.0 0.0
379.6810981508622 223.11359046125907 743.9962067044884 -0.1228247868358543 0.4024703870422044 -3.4652042259377556 0.08713011713767545 -1.6726894942058146 -0.05980659245185599 -0.6846075983150735 -1.2239084072991433 0.5420522853400851 0.0 0.0 0.0 0.42945420244933197 -0.18944320068554465 2.1836076085707266 -2.6847089696519975 2.385479938158815 8.630398013374789 -1.2873973113472728 0.19122302353000017 0.6247051602050354 0.0 0.0 0.0 -0.5688016640233875 0.19832907596735372 4.668761180453744 3.523916043078672 1.8474070476766045 -9.425228182484927 0.1648330474972062 -0.17576592173178085 -4.00785345481712 0.0 0.0 0.0
379.53236480771943 222.97454929899553 743.7463035779107 -0.14141866072482973 0.3730014152261958 -3.434624233822178 0.09132135360541745 -1.670949476677068 -0.060653039546867904 -0.6949238178653514 -1.230225014520338 0.5491298912848267 0.0 0.0 0.0 0.4383504350542523 -0.1901450852363482 2.202189045253252 -2.653449422562567 2.4172395456138513 8.683670304551677 -1.6999337204368743 0.27146939309504836 0.2557356163080315 0.0 0.0 0.0 -0.5740792471058899 0.1996866588906978 4.681078831183544 3.377190047172886 1.9832688913097511 -9.627395068147308 0.7535435815640954 -0.008920767684685853 -3.6528957035619123 0.0 0.0 0.0
379.3609660701375 222.81914365473605 743.4735498551865 -0.16081027358148023 0.3408087185747864 -3.3964024384271148 0.09512649370508133 -1.6678452294452537 -0.0613826663663325 -0.7036566099327112 -1.2380055377013417 0.5553530025543353 0.0 0.0 0.0 0.4467561311217891 -0.19083996283345192 2.219974828624269 -2.6162103899680638 2.450632066926497 8.73612771749029 -2.1737608406214752 0.36021663931761444 -0.16723217079368072 0.0 0.0 0.0 -0.5801973915485938 0.201151685734278 4.690587028304096 3.2166850754412915 2.129929357786353 -9.845896637806954 1.3963355770191008 0.16921746170623578 -3.252949278651411 0.0 0.0 0.0
379.1672467703844 222.64575437993525 743.1744602756585 -0.181309242255344 0.3058561806828402 -3.3503247943536847 0.09854471123031143 -1.6631994000943917 -0.06199068398721546 -0.7105159090122654 -1.24768417682159 0.5605806442360662 0.0 0.0 0.0 0.4546936840214764 -0.191512054021225 2.236876655542367 -2.571672295100378 2.486026181033683 8.787614514426501 -2.713807411691798 0.45695099617627527 -0.6491943368793385 0.0 0.0 0.0 -0.5871666627614198 0.2027151164502825 4.696813911210512 3.0415873631765606 2.287536136229811 -10.080887162732466 2.0955029661397835 0.35797365927533914 -2.8028898960299564 0.0 0.0 0.0
378.9521790550306 222.45284543414456 742.8457158015265 -0.20325535816445828 0.26816341016376877 -3.296338789696253 0.10158318743730974 -1.6568569660788253 -0.06247458046177875 -0.7152073078179328 -1.2597069784579096 0.5646701181871151 0.0 0.0 0.0 0.46220123268163693 -0.19214304388582917 2.252809173414615 -2.5184421573384728 2.5238217622972705 8.837999685475086 -3.3242106384294687 0.5606561365822689 -1.1946356976753025 0.0 0.0 0.0 -0.5949791748274474 0.20436394442163044 4.699289864663133 2.8512738842329264 2.4559916445041656 -10.332139140547367 2.8523551587947327 0.5561200353541347 -2.2978647620649544 0.0 0.0 0.0
378.7173512855121 222.23896194824718 742.4842282463263 -0.22701472832381486 0.22780544787565563 -3.234549755824983 0.10425578411202578 -1.6486913432460732 -0.06283400024433762 -0.717433345934451 -1.2745234990837035 0.5674769351376957 0.0 0.0 0.0 0.46933123532168425 -0.19271146994818295 2.2676829860593464 -2.455060813169217 2.564453339111102 8.887192537510728 -4.0082317880429885 0.669783761653349 -1.8074824898315967 0.0 0.0 0.0 -0.6036090028258948 0.2060812306113965 4.697546944955888 2.6453150436201933 2.634959517250203 -10.599043038669729 3.6671947389875594 0.7618721752516174 -1.7333760730784413 0.0 0.0 0.0
378.4649329773816 222.00272091063363 742.0872055822659 -0.25297509013161074 0.18490942228574128 -3.165211096623388 0.10658138109583584 -1.6386103552084812 -0.06307054729187965 -0.7168947897408244 -1.292576782416939 0.5688545643014858 0.0 0.0 0.0 0.4761486282525824 -0.1931921279631182 2.281397246187997 -2.3800109371335822 2.6083936568281763 8.93515949518134 -4.768185745356778 0.7822402317737035 -2.4910713230918207 0.0 0.0 0.0 -0.6130132823566696 0.207846284655694 4.691118139630763 2.4234686477573413 2.8238815921933846 -10.880621500210655 4.539323621470327 0.9729056668410627 -1.1053583042707262 0.0 0.0 0.0
378.19761581317135 221.74279516406827 741.6522188316886 -0.28154034276964773 0.13964793213213997 -3.0887088303828487 0.10858195919767813 -1.6265618820290606 -0.0631875245334132 -0.7132920072207369 -1.3142914896787103 0.56865405364422 0.0 0.0 0.0 0.4827286311918818 -0.19355554631829192 2.293832324425474 -2.2917259719748118 2.656156928247101 8.98194131914479 -5.605382822148638 0.8953904237915561 -3.2481324257491746 0.0 0.0 0.0 -0.6231339728469029 0.20963500047224282 4.679536915664541 2.1856653529201804 3.0220045440093126 -11.17555763827279 5.467074336918233 1.1863930749920362 -0.4102474295392385 0.0 0.0 0.0
